<svg xmlns="http://www.w3.org/2000/svg" viewBox="0 0 64 64" width="64" height="64">
  <defs>
    <linearGradient id="g" x1="0%" y1="0%" x2="100%" y2="100%">
      <stop offset="0%" style="stop-color:#cf222e;stop-opacity:1"/>
      <stop offset="100%" style="stop-color:#a40e26;stop-opacity:1"/>
    </linearGradient>
  </defs>
  <rect x="6" y="6" width="52" height="52" rx="12" fill="url(#g)"/>
  <!-- Heartbeat / monitoring line -->
  <polyline points="14,36 22,36 26,26 30,42 34,30 38,36 42,36 44,32 46,36 50,36"
            fill="none" stroke="white" stroke-width="2.5" stroke-linecap="round" stroke-linejoin="round"/>
  <!-- Small graph bars at bottom -->
  <rect x="18" y="44" width="4" height="4" rx="1" fill="white" opacity="0.5"/>
  <rect x="24" y="42" width="4" height="6" rx="1" fill="white" opacity="0.6"/>
  <rect x="30" y="40" width="4" height="8" rx="1" fill="white" opacity="0.7"/>
  <rect x="36" y="43" width="4" height="5" rx="1" fill="white" opacity="0.6"/>
  <rect x="42" y="44" width="4" height="4" rx="1" fill="white" opacity="0.5"/>
  <!-- Alert dot -->
  <circle cx="46" cy="20" r="4" fill="white" opacity="0.9"/>
  <circle cx="46" cy="20" r="2" fill="#cf222e"/>
</svg>
