<svg xmlns="http://www.w3.org/2000/svg" viewBox="0 0 64 64" width="64" height="64">
  <defs>
    <linearGradient id="g" x1="0%" y1="0%" x2="100%" y2="100%">
      <stop offset="0%" style="stop-color:#0969da;stop-opacity:1"/>
      <stop offset="100%" style="stop-color:#0550ae;stop-opacity:1"/>
    </linearGradient>
  </defs>
  <!-- Rounded square base -->
  <rect x="6" y="6" width="52" height="52" rx="12" fill="url(#g)"/>
  <!-- Gear outline -->
  <path d="M32 18 l2.5 0 l1 3.5 l3-1 l1.5 2 l-2 3 l2.5 2 l-0.5 2.5 l-3.5 0.5 l-0.5 3 l-2.5 0.5 l-1.5-3 l-3 1 l-1.5-2 l2-2.5 l-2.5-2 l0.5-2.5 l3.5-0.5 l0.5-3z"
        fill="none" stroke="white" stroke-width="1.5" opacity="0.3"/>
  <!-- Simplified gear -->
  <circle cx="32" cy="32" r="10" fill="none" stroke="white" stroke-width="2.5"/>
  <circle cx="32" cy="32" r="4.5" fill="white"/>
  <!-- Gear teeth -->
  <rect x="30" y="18" width="4" height="5" rx="1" fill="white"/>
  <rect x="30" y="41" width="4" height="5" rx="1" fill="white"/>
  <rect x="18" y="30" width="5" height="4" rx="1" fill="white"/>
  <rect x="41" y="30" width="5" height="4" rx="1" fill="white"/>
  <rect x="21.5" y="21.5" width="4" height="4" rx="1" fill="white" transform="rotate(45 23.5 23.5)"/>
  <rect x="38.5" y="38.5" width="4" height="4" rx="1" fill="white" transform="rotate(45 40.5 40.5)"/>
  <rect x="38.5" y="21.5" width="4" height="4" rx="1" fill="white" transform="rotate(45 40.5 23.5)"/>
  <rect x="21.5" y="38.5" width="4" height="4" rx="1" fill="white" transform="rotate(45 23.5 40.5)"/>
</svg>
